<?xml version="1.0" encoding="UTF-8"?>
<svg width="288px" height="226px" viewBox="0 0 288 226" version="1.1" xmlns="http://www.w3.org/2000/svg" xmlns:xlink="http://www.w3.org/1999/xlink">
    <g id="Usability-Testing" stroke="none" stroke-width="1" fill="none" fill-rule="evenodd">
        <g id="1b2-Iterations-Page---Overview-Burndown" transform="translate(-1046.000000, -69.000000)" fill="currentColor" fill-rule="nonzero">
            <g id="Clubhouse_FlagSymbol_White" transform="translate(1046.000000, 69.000000)">
                <g id="Logo">
                    <g id="Group">
                        <path d="M20.9,183.3 C9.4,183.3 0,192.7 0,204.2 C0,215.7 9.4,225.1 20.9,225.1 C32.4,225.1 41.8,215.7 41.8,204.2 C41.8,192.7 32.5,183.3 20.9,183.3 Z" id="Path"></path>
                        <path d="M278.2,0.8 L146.6,42.8 L146.6,1.3 L4.7,46.6 L4.7,166.9 L127.1,127.8 L127.1,169.1 L288,117.8 L244.4,75.2 L278.2,0.8 Z M127.1,107.2 L24.3,140 L24.3,60.9 L127.1,28.1 L127.1,107.2 Z M251.6,108.9 L146.6,142.4 L146.6,63.4 L243.3,32.5 L221.1,79.3 L251.6,108.9 Z" id="Shape"></path>
                    </g>
                </g>
            </g>
        </g>
    </g>
</svg>
